<svg version="1.1" id="Camada_1" xmlns="http://www.w3.org/2000/svg" x="0" y="0" viewBox="0 0 2000 1476.9" style="enable-background:new 0 0 2000 1476.9" xml:space="preserve"><style>.st0{fill:#00c700}</style><path class="st0" d="M1235.7 1476.9c-179.7 0-348.4-72.4-475.7-203.6-34.7-35.9-34.7-94.3 0-130.5 34.7-35.9 91.3-35.9 126.3 0 93.2 96.3 217.3 149.5 349.4 149.5 132.1 0 256.1-53.1 349.4-149.5 34.7-35.9 91.3-35.9 126.3 0 34.7 35.9 34.7 94.3 0 130.5-127.3 131.5-296 203.6-475.7 203.6zM1614.7 246.8c-210.5 0-377 167.4-377 384.3v230.2c0 55.5 43.7 100.3 97.4 100.3s97.4-44.8 97.4-100.3V624c0-113.3 86.5-191 182.2-191 95.8 0 190.6 77.7 190.6 191v237.1c0 55.5 43.7 100.3 97.4 100.3s97.4-44.8 97.4-100.3V631c-.4-216.9-175.3-384.2-385.4-384.2zM0 644c0 180 125.3 304.9 290.9 316.5 9 .7 35 1.7 51.1 1 49.8 0 90.3-41.8 90.3-93.3s-40.5-93.3-90.3-93.3h-26.4c-69.4 0-118.9-57.1-121.2-126.5V430.8h149.4c48.9 0 88.4-40.8 88.4-91.3s-39.5-91.3-88.4-91.3H194.4V100.3C194.4 44.8 151.1 0 97.4 0S0 44.8 0 100.3V644zM823.1 246.8c-194.8 0-352.9 163.4-352.9 364.7 0 201.3 158.1 364.7 352.9 364.7 194.8 0 352.9-163.4 352.9-364.7 0-201.3-157.8-364.7-352.9-364.7zm0 541.6c-96.1 0-173.9-79-173.9-177s77.8-177 173.9-177 173.9 79 173.9 177-77.8 177-173.9 177z"/></svg>